<svg version="1.1" viewBox="0 0 512 512" xmlns="http://www.w3.org/2000/svg">
 <g transform="translate(0 -162)" style="fill:rgba(0,0,0,0.4)">
  <path d="m396 455v85q0 32-23 54t-54 23h-222q-32 0-54-23t-23-54v-222q0-32 23-54t54-23h188q4 0 6 2t2 6v17q0 4-2 6t-6 2h-188q-18 0-30 13t-13 30v222q0 18 13 30t30 13h222q18 0 30-13t13-30v-85q0-4 2-6t6-2h17q4 0 6 2t2 6zm102-230v136q0 7-5 12t-12 5q-7 0-12-5l-47-47-174 174q-3 3-6 3-3 0-6-3l-30-30q-3-3-3-6 0-3 3-6l174-174-47-47q-5-5-5-12 0-7 5-12t12-5h136q7 0 12 5t5 12z" />
 </g>
</svg>
