<svg version="1.1" viewBox="0 0 512 512" xmlns="http://www.w3.org/2000/svg">
 <path style="fill:rgba(0,0,0,0.4);stroke:none;" d="m395 341q0-10-7-17l-52-52q-7-7-17-7t-18 8q1 1 5 5t5 5 4 5q2 3 3 6t1 7q0 10-7 17t-17 7q-4 0-7-1t-6-3-5-4-5-5q-4-4-5-5-8 8-8 18t7 17l51 51q7 7 17 7t17-6l36-36q7-7 7-17zm-174-175q0-10-7-17l-51-51q-7-7-17-7t-17 7l-36 36q-7 7-7 17t7 17l52 52q7 7 17 7t18-8q-1-1-5-5t-5-5-4-5q-2-3-3-6t-1-7q0-10 7-17t17-7q4 0 7 1t6 3 5 4q1 1 5 5t5 5q8-8 8-18zm222 175q0 30-21 50l-36 36q-21 21-50 21-30 0-51-21l-51-51q-21-21-21-50 0-31 22-52l-22-22q-21 22-52 22-30 0-51-21l-52-52q-21-21-21-51t21-50l36-36q21-21 50-21 30 0 51 21l51 51q21 21 21 50 0 31-22 52l22 22q21-22 52-22 30 0 51 21l52 52q21 21 21 51z"/>
</svg>
