<svg version="1.1" viewBox="0 0 512 512" xmlns="http://www.w3.org/2000/svg">
 <g transform="translate(0 -162)" style="fill:rgba(0,0,0,0.4)">
  <path d="m54 391v-120l3 2c1 1 32 27 67 58l64 56-4 4c-2 2-29 27-60 56-31 29-59 55-63 58l-7 7z"/>
  <path d="m165 338-94-80 93-0c51-0 135-0 186 0l93 0-91 80c-50 44-92 80-92 80-1 0-43-36-95-80z"/>
  <path d="m393 449c-36-32-65-59-65-60 0-1 30-27 66-59l66-58v118c0 65-0 118-0 118-0 0-30-26-66-59z"/>
  <path d="m73 524c0-0 27-25 60-56s63-58 66-60l5-5 27 23c15 13 28 23 28 23 1-0 12-10 26-22 20-18 25-22 26-20 3 2 130 112 133 115l3 3h-187c-103 0-187-0-187-1z"/>
 </g>
</svg>
