<svg version="1.1" viewBox="0 0 512 512" xmlns="http://www.w3.org/2000/svg">
 <g transform="translate(0 -162)" style="fill:#003344;">
  <path d="m117 569q0-7-5-13-5-5-13-5-7 0-13 5-5 5-5 13t5 13q5 5 13 5 7 0 13-5 5-5 5-13zm324-162q0-14-11-25-11-11-25-11h-99q0-16 13-45 13-29 13-45 0-28-9-41-9-13-36-13-7 7-11 24-3 17-9 35-5 19-17 31-6 6-22 26-1 1-6 8-5 7-9 12-4 4-10 12-6 7-11 12-5 5-11 10-6 5-11 8-5 3-10 3h-9v180h9q4 0 9 1 5 1 9 2 4 1 11 3 7 2 10 3 3 1 10 4 7 2 8 3 59 21 96 21h34q54 0 54-47 0-7-1-16 8-4 13-15 5-10 5-21 0-10-5-19 15-14 15-33 0-7-3-16-3-9-7-13 9-0 15-13 6-13 6-23zm36-0q0 25-14 46 3 9 3 19 0 22-11 40 1 6 1 12 0 28-17 50 0 39-24 62-24 23-64 23h-36q-27 0-53-6-26-6-61-18-33-11-39-11h-81q-15 0-25-11-11-11-11-25v-180q0-15 11-25 11-11 25-11h77q10-7 39-44 16-21 30-36 7-7 10-24 3-17 9-36 5-19 17-30 11-10 25-10 24 0 42 9 19 9 29 29 10 19 10 52 0 26-13 54h49q29 0 51 21 21 21 21 50z"/>
 </g>
</svg>
